@startuml Iterator 패턴(김동석)

hide empty members
hide empty methods

title Iterator 패턴(김동석)
header https://github.com/bluedskim/javaDesignPatterns
footer 작성시각 %date("yyyy.MM.dd' 'HH:mm")


interface Iterator {
	public boolean hasNext();
	public Object next();
}

class ArrayIterator {
	public boolean hasNext();
	public Object next();
	Object[] array;
	int index = 0;
}

class IteratorTest {
	void arrayIteratorTest()
}

Iterator <|-- ArrayIterator

IteratorTest --> ArrayIterator

@enduml